# xmcd
#
# Track frame offsets:
#	150
#	28217
#	44166
#	68212
#	98397
#	123409
#	157867
#	176871
#	198527
#	214853
#
# Disc length: 3186 seconds
#
# Revision: 1
# Processed by: cddbd v1.5.2PL0 Copyright (c) Steve Scherf et al.
# Submitted via: dBpowerAMP V4.0
#
DISCID=8f0c700a
DTITLE=Popa Chubby - I'm Feeling Lucky
DYEAR=2014
DGENRE=Blues
TTITLE0=Come To Me (with Dana Fuchs)
TTITLE1=One Leg At A Time
TTITLE2=Three Little Words
TTITLE3=Rollin' N' Tumblin'
TTITLE4=Too Much Information
TTITLE5=Rock On Bluesman (with Mike Zito)
TTITLE6=I'm Feelin' Lucky
TTITLE7=Save Your Own Life
TTITLE8=I'm A Pitbull (Nothing But Love)
TTITLE9=The Way It Is
EXTD=
EXTT0=
EXTT1=
EXTT2=
EXTT3=
EXTT4=
EXTT5=
EXTT6=
EXTT7=
EXTT8=
EXTT9=
PLAYORDER=
